# xmcd
#
# Track frame offsets: 
#        150
#        9538
#        30720
#        43865
#        65266
#        80667
#        101590
#        114572
#        131036
#
# Disc length: 1901 seconds
#
# Revision: 0
# Processed by: cddbd v1.5.1PL2 Copyright (c) Steve Scherf et al.
# Submitted via: ExactAudioCopy v0.95b3
#
DISCID=75076b09
DTITLE=Park Shinyang - the lover
DYEAR=2005
DGENRE=Pop
TTITLE0=mattina(prologue)
TTITLE1=???????
TTITLE2=???? ???(narration ver.)
TTITLE3=??
TTITLE4=??(narration ver.)
TTITLE5=???? ?? ?? ?? ?? ???
TTITLE6=???? ?? ?? ?? ?? ???(narration ver)
TTITLE7=???? ??
TTITLE8=sogno di tramonto(epilogue)
EXTD=
EXTT0=mattina(prologue)
EXTT1=
EXTT2=
EXTT3=
EXTT4=
EXTT5=
EXTT6=
EXTT7=
EXTT8=
PLAYORDER=
